<svg height="512" viewBox="0 0 74 74" width="512" xmlns="http://www.w3.org/2000/svg"><g id="Numbers"><text fill="rgb(0,0,0)" font-family="ArialMT, Arial" font-size="18" transform="translate(31.994 -389.877)">7<tspan x="-5.005" y="124">17</tspan><tspan x="-5.005" y="248">27</tspan><tspan x="-5.005" y="372">37</tspan><tspan x="-5.005" y="496">47</tspan><tspan x="-5.005" y="620">57</tspan><tspan x="-5.005" y="744">67</tspan><tspan x="-5.005" y="868">77</tspan><tspan x="-5.005" y="992">87</tspan><tspan x="-5.005" y="1116">97</tspan><tspan x="-10.011" y="1240">107</tspan><tspan letter-spacing="-.074em" x="-9.343" y="1364">1</tspan><tspan x="-.668" y="1364">17</tspan><tspan x="-10.011" y="1488">127</tspan><tspan x="-10.011" y="1612">137</tspan><tspan x="-10.011" y="1736">147</tspan><tspan x="-10.011" y="1860">157</tspan><tspan x="-10.011" y="1984">167</tspan><tspan x="-10.011" y="2108">177</tspan><tspan x="-10.011" y="2232">187</tspan><tspan x="-10.011" y="2356">197</tspan><tspan x="-10.011" y="2480">207</tspan><tspan x="-10.011" y="2604">217</tspan><tspan x="-10.011" y="2728">227</tspan><tspan x="-10.011" y="2852">237</tspan><tspan x="-10.011" y="2976">247</tspan><tspan x="-10.011" y="3100">257</tspan><tspan x="-10.011" y="3224">267</tspan><tspan x="-10.011" y="3348">277</tspan><tspan x="-10.011" y="3472">287</tspan><tspan x="-10.011" y="3596">297</tspan></text></g><g id="Icons"><path d="m41.19 72h-2.97a1 1 0 0 1 0-2h2.97a1 1 0 0 1 0 2z"/><path d="m62.79 72h-14.6a1 1 0 0 1 0-2h14.6a8.068 8.068 0 0 0 7.758-10.268l-7.01-24.732a1.011 1.011 0 0 1 -.038-.273v-9.677a.511.511 0 0 0 -.51-.51h-51.98a.511.511 0 0 0 -.51.51v9.68a1.011 1.011 0 0 1 -.038.273l-7.01 24.73a8.068 8.068 0 0 0 7.758 10.267h10.11a1 1 0 0 1 0 2h-10.11a10.067 10.067 0 0 1 -9.682-12.812l6.972-24.597v-9.541a2.513 2.513 0 0 1 2.51-2.51h51.98a2.513 2.513 0 0 1 2.51 2.51v9.541l6.972 24.6a10.067 10.067 0 0 1 -9.682 12.809z"/><path d="m31.22 72h-2.9a1 1 0 1 1 0-2h2.9a1 1 0 0 1 0 2z"/><path d="m52.867 34.222a1 1 0 0 1 -1-1v-14.355a14.867 14.867 0 0 0 -29.734 0v14.355a1 1 0 0 1 -2 0v-14.355a16.867 16.867 0 0 1 33.734 0v14.355a1 1 0 0 1 -1 1z"/><path d="m55.645 34.222h-5.555a1 1 0 0 1 0-2h5.555a1 1 0 0 1 0 2z"/><path d="m23.91 34.222h-5.555a1 1 0 1 1 0-2h5.555a1 1 0 1 1 0 2z"/><path d="m35.988 48.24q-14.136 0-27.188-12.793a1 1 0 0 1 1.4-1.427c16.713 16.419 34.265 16.4 53.655-.049a1 1 0 1 1 1.293 1.529q-15.018 12.74-29.16 12.74z"/></g></svg>