<?xml version="1.0"?>
<svg xmlns="http://www.w3.org/2000/svg" xmlns:xlink="http://www.w3.org/1999/xlink" xmlns:svgjs="http://svgjs.com/svgjs" version="1.1" width="512" height="512" x="0" y="0" viewBox="0 0 512 512" style="enable-background:new 0 0 512 512" xml:space="preserve" class=""><g><g xmlns="http://www.w3.org/2000/svg" id="outline"><path d="M256,48H224a8.134,8.134,0,0,0-.83.043C135.094,49.858,64,122.062,64,210.565v90.87c0,88.5,71.094,160.707,159.17,162.522A8.134,8.134,0,0,0,224,464h32a8,8,0,0,0,8-8V430.364A178.043,178.043,0,0,0,288,432c97.047,0,176-78.953,176-176S385.047,80,288,80a178.228,178.228,0,0,0-24,1.635V56A8,8,0,0,0,256,48ZM232,64h16v96H232ZM216,447.616C140.1,442.183,80,378.7,80,301.435v-90.87C80,133.3,140.1,69.817,216,64.384V160h-3.228A52.833,52.833,0,0,0,160,212.773v86.454A52.833,52.833,0,0,0,212.772,352H216ZM248,448H232V352h16Zm8-112H212.772A36.814,36.814,0,0,1,176,299.227V212.773A36.814,36.814,0,0,1,212.772,176H256a8,8,0,0,0,8-8V130.259a128.581,128.581,0,0,1,16-2.007V144a8,8,0,0,0,16,0V128.257a127.3,127.3,0,0,1,68.379,25.091l-14.794,17.485A8,8,0,1,0,361.8,181.167l14.784-17.473A127.677,127.677,0,0,1,415.743,248H400a8,8,0,0,0,0,16h15.743A128.18,128.18,0,0,1,296,383.743V368a8,8,0,0,0-16,0v15.748a128.581,128.581,0,0,1-16-2.007V344A8,8,0,0,0,256,336ZM288,96c88.225,0,160,71.776,160,160S376.225,416,288,416a161.846,161.846,0,0,1-24-1.8V397.991A145.207,145.207,0,0,0,288,400c79.4,0,144-64.6,144-144a143.7,143.7,0,0,0-49.334-108.416,7.884,7.884,0,0,0-3.392-2.878A143.33,143.33,0,0,0,288,112a145.108,145.108,0,0,0-24,2.009V97.8A161.856,161.856,0,0,1,288,96Z" fill="#e09b00" data-original="#000000" style="" class=""/><path d="M288,280a23.858,23.858,0,0,0,10.341-2.345l56,56a8,8,0,0,0,11.314-11.314l-56-56A23.99,23.99,0,0,0,296,233.376V192a8,8,0,0,0-16,0v41.376A24,24,0,0,0,288,280Zm0-32a8,8,0,1,1-8,8A8.009,8.009,0,0,1,288,248Z" fill="#e09b00" data-original="#000000" style="" class=""/><path d="M104,200a8,8,0,0,0-8,8v16a8,8,0,0,0,16,0V208A8,8,0,0,0,104,200Z" fill="#e09b00" data-original="#000000" style="" class=""/><path d="M104,248a8,8,0,0,0-8,8v32a8,8,0,0,0,16,0V256A8,8,0,0,0,104,248Z" fill="#e09b00" data-original="#000000" style="" class=""/></g></g></svg>
