<?xml version="1.0"?>
<svg xmlns="http://www.w3.org/2000/svg" xmlns:xlink="http://www.w3.org/1999/xlink" xmlns:svgjs="http://svgjs.com/svgjs" version="1.1" width="512" height="512" x="0" y="0" viewBox="0 0 512 512" style="enable-background:new 0 0 512 512" xml:space="preserve" class=""><g><g xmlns="http://www.w3.org/2000/svg"><path d="m160.925 10.36c-13.941-13.94-36.588-13.799-50.352.343l-78.812 80.977c-21.804 22.406-5.972 60.033 25.345 60.033h27.896v325.285c0 19.299 15.701 35 35 35h34c19.299 0 35-15.701 35-35v-325.285h27.896c31.444 0 47.259-38.122 25.007-60.373z" fill="#ffffff" data-original="#000000" style="" class=""/><path d="m454.893 360.287h-27.895v-325.285c0-19.299-15.701-35-35-35h-34c-19.299 0-35 15.701-35 35v325.285h-27.895c-31.444 0-47.261 38.122-25.008 60.373l80.979 80.979c13.941 13.941 36.589 13.8 50.351-.342l78.813-80.978c21.805-22.407 5.971-60.032-25.345-60.032z" fill="#ffffff" data-original="#000000" style="" class=""/></g></g></svg>
